<?xml version="1.0" encoding="utf-8"?>
<!-- Generator: Adobe Illustrator 18.0.0, SVG Export Plug-In . SVG Version: 6.00 Build 0)  -->
<!DOCTYPE svg PUBLIC "-//W3C//DTD SVG 1.1//EN" "http://www.w3.org/Graphics/SVG/1.1/DTD/svg11.dtd">
<svg version="1.1" id="Layer_1" xmlns="http://www.w3.org/2000/svg" xmlns:xlink="http://www.w3.org/1999/xlink" x="0px" y="0px"
	 viewBox="0 0 65.8 65.8" enable-background="new 0 0 65.8 65.8" xml:space="preserve">
<g>
	<path fill="#0C0C0C" d="M63.8,0c-7.4,0-13.5,6-13.5,13.5v28.9h3.9v23.4h11.6V0H63.8z M61.9,61.9H58V42.4h3.9V61.9z M61.9,38.5h-7.7
		v-25c0-4.7,3.3-8.5,7.7-9.4V38.5z"/>
	<path fill="#0C0C0C" d="M42.6,12.2h-3.9V0h-3.9v12.2h-3.9V0h-3.9v19.3c0,3,1.5,5.9,3.9,7.7v38.8h11.6V27c2.4-1.8,3.9-4.7,3.9-7.7V0
		h-3.9V12.2z M34.9,61.9V42.4h3.9v19.5H34.9z M39.7,24.3l-1,0.6v13.7h-3.9V24.8l-1-0.6c-1.8-1-2.9-2.9-2.9-5v-3.2h11.6v3.2
		C42.6,21.3,41.5,23.2,39.7,24.3z"/>
	<path fill="#0C0C0C" d="M11.7,0C8.5,0,5.5,1.6,3.3,4.4C1.2,7.1,0,10.7,0,14.4c0,5.2,2.3,10,5.9,12.6v38.7h11.6V27
		c3.6-2.5,5.9-7.3,5.9-12.6c0-3.8-1.2-7.3-3.3-10C17.9,1.6,14.9,0,11.7,0z M9.8,61.9V42.4h3.9v19.5H9.8z M14.6,24.3l-1,0.5v13.7H9.8
		V24.8l-1-0.5c-3-1.6-4.9-5.5-4.9-9.8c0-2.9,0.9-5.6,2.5-7.7c1.5-1.9,3.4-2.9,5.4-2.9s3.9,1,5.4,2.9c1.6,2,2.5,4.8,2.5,7.7
		C19.5,18.8,17.6,22.6,14.6,24.3z"/>
</g>
</svg>
