<?xml version="1.0" encoding="utf-8"?>
<!-- Generator: Adobe Illustrator 18.0.0, SVG Export Plug-In . SVG Version: 6.00 Build 0)  -->
<!DOCTYPE svg PUBLIC "-//W3C//DTD SVG 1.1//EN" "http://www.w3.org/Graphics/SVG/1.1/DTD/svg11.dtd">
<svg version="1.1" id="Layer_1" xmlns="http://www.w3.org/2000/svg" xmlns:xlink="http://www.w3.org/1999/xlink" x="0px" y="0px"
	 viewBox="0 0 68 68" enable-background="new 0 0 68 68" xml:space="preserve">
<path fill-rule="evenodd" clip-rule="evenodd" fill="#0C0C0C" d="M54.4,15.4c-9,2.6-10.7,9.9-10.1,14.5c-6.4-7.6-6.2-16.3-6.2-28.8
	C17.5,8.8,22.3,31.3,21.6,38.1c-5.2-4.3-6.2-14.4-6.2-14.4C10,26.5,7.2,34.1,7.2,40.2c0,14.8,12,26.8,26.8,26.8
	c14.8,0,26.8-12,26.8-26.8C60.8,31.4,54.3,27.3,54.4,15.4L54.4,15.4z M35,62.8c-13.1,0-23.7-11-23.7-23.4c0-2.9,0.1-5.2,2-7.5
	c-0.2,1.3,2.9,12.5,13,11.9c-0.4-8.5-2.7-29.3,7.9-36.4c-0.9,11.3,1.8,26.5,14.2,28.7C47.8,31.5,47.8,24,51,22.6
	c0.3,6.9,5.5,11.2,5.5,17.9C56.5,52.6,44.8,62.8,35,62.8L35,62.8z M35,62.8"/>
</svg>
