<?xml version="1.0" encoding="utf-8"?>
<!-- Generator: Adobe Illustrator 18.0.0, SVG Export Plug-In . SVG Version: 6.00 Build 0)  -->
<!DOCTYPE svg PUBLIC "-//W3C//DTD SVG 1.1//EN" "http://www.w3.org/Graphics/SVG/1.1/DTD/svg11.dtd">
<svg version="1.1" id="Layer_1" xmlns="http://www.w3.org/2000/svg" xmlns:xlink="http://www.w3.org/1999/xlink" x="0px" y="0px"
	 viewBox="0 0 65.8 65.8" enable-background="new 0 0 65.8 65.8" xml:space="preserve">
<path fill-rule="evenodd" clip-rule="evenodd" fill="#0C0C0C" d="M57.7-0.1H8.2C3.6-0.1-0.1,4-0.1,8.5v49.2c0,4.5,3.7,8.2,8.2,8.2
	h49.2c4.5,0,8.6-3.7,8.6-8.3V8.1C65.9,3.6,62.2-0.1,57.7-0.1L57.7-0.1z M61.8,57.7c0,2.3-2.2,4.2-4.5,4.2H8.1C5.8,61.8,4,60,4,57.7
	V8.5C4,6.2,5.9,4,8.2,4h49.5c2.3,0,4.1,1.9,4.1,4.1V57.7z M49.4,41.2h-33c-1.1,0-2.1,0.9-2.1,2.1c0,1.1,0.9,2.1,2.1,2.1h33
	c1.1,0,2.1-0.9,2.1-2.1C51.5,42.1,50.6,41.2,49.4,41.2L49.4,41.2z M49.4,28.8h-33c-1.1,0-2.1,0.9-2.1,2.1c0,1.1,0.9,2.1,2.1,2.1h33
	c1.1,0,2.1-0.9,2.1-2.1C51.5,29.7,50.6,28.8,49.4,28.8L49.4,28.8z M49.4,16.4h-33c-1.1,0-2.1,0.9-2.1,2.1c0,1.1,0.9,2.1,2.1,2.1h33
	c1.1,0,2.1-0.9,2.1-2.1C51.5,17.3,50.6,16.4,49.4,16.4L49.4,16.4z M49.4,16.4L49.4,16.4z"/>
</svg>
