<?xml version="1.0" encoding="utf-8"?>
<!-- Generator: Adobe Illustrator 18.0.0, SVG Export Plug-In . SVG Version: 6.00 Build 0)  -->
<!DOCTYPE svg PUBLIC "-//W3C//DTD SVG 1.1//EN" "http://www.w3.org/Graphics/SVG/1.1/DTD/svg11.dtd">
<svg version="1.1" id="Layer_1" xmlns="http://www.w3.org/2000/svg" xmlns:xlink="http://www.w3.org/1999/xlink" x="0px" y="0px"
	 viewBox="0 0 65.8 65.8" enable-background="new 0 0 65.8 65.8" xml:space="preserve">
<path fill-rule="evenodd" clip-rule="evenodd" fill="#0C0C0C" d="M65.2,62.2l-17-16.7c4.5-4.8,7.2-11.2,7.2-18.3
	C55.4,12.2,43,0,27.7,0C12.4,0,0,12.2,0,27.3c0,15,12.4,27.3,27.7,27.3c6.6,0,12.7-2.3,17.4-6.1l17.1,16.8c0.8,0.8,2.2,0.8,3,0
	C66,64.4,66,63.1,65.2,62.2L65.2,62.2z M27.7,50.3c-13,0-23.4-10.3-23.4-23.1c0-12.7,10.5-23.1,23.4-23.1
	c12.9,0,23.4,10.3,23.4,23.1C51.1,40,40.6,50.3,27.7,50.3L27.7,50.3z M27.7,50.3"/>
</svg>
