<?xml version="1.0" encoding="utf-8"?>
<!-- Generator: Adobe Illustrator 18.0.0, SVG Export Plug-In . SVG Version: 6.00 Build 0)  -->
<!DOCTYPE svg PUBLIC "-//W3C//DTD SVG 1.1//EN" "http://www.w3.org/Graphics/SVG/1.1/DTD/svg11.dtd">
<svg version="1.1" id="Layer_1" xmlns="http://www.w3.org/2000/svg" xmlns:xlink="http://www.w3.org/1999/xlink" x="0px" y="0px"
	 viewBox="0 0 68 68" enable-background="new 0 0 68 68" xml:space="preserve">
<path fill-rule="evenodd" clip-rule="evenodd" fill="#0C0C0C" d="M65.8,42l-5.3-3.1c0.3-1.6,0.5-3.3,0.5-4.9c0-1.7-0.2-3.3-0.5-4.9
	l5.3-3.1c2.1-1.3,2.9-4,1.6-6.2l-4.5-7.8c-1.2-2.2-4-2.9-6.1-1.7l-5.3,3.1c-2.5-2.1-5.3-3.9-8.5-5V4.5C43,2,41,0,38.5,0h-9
	C27,0,25,2,25,4.5v3.8c-3.1,1.1-6,2.9-8.5,5l-5.3-3.1C9.1,9,6.3,9.8,5.1,11.9l-4.5,7.8C-0.6,22,0.1,24.7,2.2,26l5.3,3.1
	C7.2,30.7,7,32.3,7,34c0,1.7,0.2,3.3,0.5,4.9L2.2,42c-2.1,1.3-2.9,4-1.6,6.2l4.5,7.8c1.2,2.2,4,2.9,6.1,1.7l5.3-3.1
	c2.5,2.1,5.3,3.9,8.4,5v3.8c0,2.5,2,4.5,4.5,4.5h9c2.5,0,4.5-2,4.5-4.5v-3.8c3.1-1.1,6-2.9,8.4-5l5.3,3.1c2.1,1.2,4.9,0.5,6.1-1.7
	l4.5-7.8C68.6,46,67.9,43.3,65.8,42L65.8,42z M62.4,47.9l-2.2,3.9c-0.6,1.1-2,1.5-3.1,0.8L50.8,49c-3.2,3.6-7.4,6.2-12.3,7.2v5
	c0,1.2-1,2.3-2.2,2.3h-4.5c-1.2,0-2.2-1-2.2-2.3v-5c-4.9-1-9.2-3.6-12.3-7.2l-6.2,3.6c-1.1,0.6-2.4,0.3-3.1-0.8l-2.2-3.9
	c-0.6-1.1-0.3-2.5,0.8-3.1l6.3-3.6c-0.8-2.3-1.2-4.6-1.2-7.2c0-2.5,0.4-4.9,1.2-7.2l-6.3-3.7c-1.1-0.6-1.4-2-0.8-3.1l2.2-3.9
	c0.6-1.1,2-1.5,3.1-0.8l6.2,3.6c3.2-3.6,7.4-6.2,12.3-7.2v-5c0-1.2,1-2.3,2.2-2.3h4.5c1.2,0,2.2,1,2.2,2.3v5c4.9,1,9.2,3.6,12.3,7.2
	l6.3-3.6c1.1-0.6,2.4-0.3,3.1,0.8l2.2,3.9c0.6,1.1,0.3,2.5-0.8,3.1l-6.3,3.6c0.8,2.3,1.2,4.6,1.2,7.2c0,2.5-0.4,4.9-1.2,7.2l6.3,3.6
	C62.6,45.4,63,46.8,62.4,47.9L62.4,47.9z M34,22.7c-6.2,0-11.2,5.1-11.2,11.3c0,6.3,5,11.3,11.2,11.3c6.2,0,11.2-5.1,11.2-11.3
	C45.2,27.7,40.2,22.7,34,22.7L34,22.7z M34,40.8c-3.7,0-6.7-3-6.7-6.8c0-3.8,3-6.8,6.7-6.8c3.7,0,6.7,3,6.7,6.8
	C40.7,37.8,37.7,40.8,34,40.8L34,40.8z M34,40.8L34,40.8z"/>
</svg>
